<?xml version="1.0" encoding="utf-8"?>
<svg version="1.2" baseProfile="tiny-ps" id="Laag_1" xmlns="http://www.w3.org/2000/svg" xmlns:xlink="http://www.w3.org/1999/xlink" viewBox="0010001000" xml:space="preserve">
<title>MimecastDMARCAnalyzer</title>
<g>
<path fill="#33726A" d="M633.6,930.7c5.4-1.9,10.9-3.5,16.1-5.7c68.3-23,129.1-61.8,178.3-112.4v72.5c0,18.9,6.1,34.3,18.4,46c12.2,11.7,27.9,17.6,46.8,17.6s34.6-5.9,46.9-17.6c12.2-11.7,18.4-27.1,18.4-46V547.8L693.1,656.6L633.6,930.7z"/>
<path fill="#33726A" d="M111.3,219.8c-7.5,10.8-15.2,21.4-22,33c-40.7,70.3-61,150-61,239.2c0,76.9,15.1,147,45.3,210.21146-236.5L111.3,219.8z"/>
<path fill="#33726A" d="M958.1,483.6c-2.4-85.8-23.1-162.8-62.4-230.9C855,182.4,799.7,127,730,86.3c-11.6-6.8-23.7-12.8-35.8-18.5120.5,274.1L958.1,483.6z"/>
<path fill="#33726A" d="M255.8,86.3c-35.8,20.7-67.6,45.3-95.7,73.71262.1,63.9L625.4,42.5C583.9,31.1,540,25.2,493.3,25.2
C405.3,25.2,326.1,45.6,255.8,86.3z"/>
<path fill="#33726A" d="M108.2,761.3C145.3,816.4,
191.9,861.7,249,896c68.1,40.7,145,61,231,61c31.2,0,61-2.8,89.7-8.3L386.9,733.1L108.2,761.3z"/></g></svg>
